With: Richard Gere, Don Cheadle and Ethan Hawke

Nadat een jonge zwarte tiener wordt neergeschoten door de politie in de Newyorkse wijk Brooklyn, breekt de hel los. In deze moeilijke omstandigheden beleven drie doorwinterde agenten de donkerste jaren uit hun carrière: een uitgebluste wijkagent (Richard Gere) enkele dagen voor z’n pensioen, een corrupte narcotica-agent (Ethan Hawke) die moeilijk de eindjes aan elkaar kan knopen, en een undercoveragent (Don Cheadle) die moet kiezen tussen zijn loyaliteit aan het korps, en zijn vrienden uit de onderwereld… Drie ogenschijnlijk op zichzelf staande verhalen die toch met elkaar verbonden blijken te zijn.

Three unconnected Brooklyn cops wind up at the same deadly location after enduring vastly different career paths.

General:

Complete name                    : Brooklyn's Finest\Brooklyn's Finest.avi
Format                           : AVI
Format/Info                      : Audio Video Interleave
File size                        : 1.72 GiB
Duration                         : 2h 6mn
Overall bit rate                 : 1 943 Kbps

Video:

Format                           : MPEG-4 Visual
Format profile                   : Simple@L3
Format settings, BVOP            : No
Format settings, QPel            : No
Format settings, GMC             : No warppoints
Format settings, Matrix          : Default (H.263)
Codec ID                         : XVID
Codec ID/Hint                    : XviD
Duration                         : 2h 6mn
Bit rate                         : 1 484 Kbps
Width                            : 720 pixels
Height                           : 304 pixels
Display aspect ratio             : 2.35:1
Frame rate                       : 25.000 fps
Color space                      : YUV
Chroma subsampling               : 4:2:0
Bit depth                        : 8 bits
Scan type                        : Progressive
Bits/(Pixel*Frame)               : 0.271
Stream size                      : 1.32 GiB (76%)
Writing library                  : XviD 1.1.2 (UTC 2006-11-01)

Audio:

Format                           : AC-3
Format/Info                      : Audio Coding 3
Mode extension                   : CM (complete main)
Codec ID                         : 2000
Duration                         : 2h 6mn
Bit rate mode                    : Constant
Bit rate                         : 448 Kbps
Channel(s)                       : 6 channels
Channel positions                : Front: L C R, Side: L R, LFE
Sampling rate                    : 48.0 KHz
Bit depth                        : 16 bits
Stream size                      : 407 MiB (23%)
Alignment                        : Aligned on interleaves
Interleave, duration             : 32 ms (0.80 video frame)
Interleave, preload duration     : 576 ms

